/* XPM */
static char *zack_xpm[] = {
"16 16 10 1",
"1    c None"
"2    c #FFCCAA"
"3    c #FFAA80"
"4    c #302000"
"5    c #CC8050"
"6    c #603000"
"7    c #FFFFFF"
"8    c #008000"
"9    c #AA6030"
":    c #AA0000"
"1112222222222111"
"1122222222222211"
"1343335225333431"
"6666335225336666"
"7787635225367877"
"6787763223677876"
"3666633223366663"
"2333335225333332"
"3222235225322223"
"3332293223922333"
"33:2239229322:33"
"333:22399322:333"
"2333:222222:3332"
"12333::::::33321"
"1123333333333211"
"1113322222233111"
"};